
<global>
amp_veltrack=0
ampeg_attack=0.01
ampeg_release=0.45
master-volume=-3.0
</global>

<group>
amp_veltrack=0
group_label=PP
xf_cccurve=gain
xfin_hicc1=42
xfout_hicc1=85
xfout_locc1=42

<region>
hikey=a#2
hivel=127
lokey=a2
loop_end=282471
loop_mode=loop_continuous
loop_start=100653
loop_xfade=45454
lovel=0
offset=19235
pitch_keycenter=a#2
sample=Cellos_marcato_PP_A#2.opus
tune=-2
</region>

<region>
hikey=a#3
hivel=127
lokey=a3
loop_end=282471
loop_mode=loop_continuous
loop_start=100653
loop_xfade=45454
lovel=0
offset=16190
pitch_keycenter=a#3
sample=Cellos_marcato_PP_A#3.opus
tune=-2
</region>

<region>
hikey=a#4
hivel=127
lokey=a4
loop_end=282471
loop_mode=loop_continuous
loop_start=100653
loop_xfade=45454
lovel=0
offset=14736
pitch_keycenter=a#4
sample=Cellos_marcato_PP_A#4.opus
tune=-1
</region>

<region>
hivel=127
key=c2
loop_end=280983
loop_mode=loop_continuous
loop_start=100123
loop_xfade=45215
lovel=0
offset=14393
sample=Cellos_marcato_PP_C2.opus
tune=-1
</region>

<region>
hikey=c3
hivel=127
lokey=b2
loop_end=282471
loop_mode=loop_continuous
loop_start=100653
loop_xfade=45454
lovel=0
offset=17082
pitch_keycenter=c3
sample=Cellos_marcato_PP_C3.opus
tune=-2
</region>

<region>
hikey=c4
hivel=127
lokey=b3
loop_end=280867
loop_mode=loop_continuous
loop_start=100081
loop_xfade=45196
lovel=0
offset=15151
pitch_keycenter=c4
sample=Cellos_marcato_PP_C4.opus
tune=-2
</region>

<region>
hikey=c5
hivel=127
lokey=b4
loop_end=280326
loop_mode=loop_continuous
loop_start=99888
loop_xfade=45109
lovel=0
offset=18023
pitch_keycenter=c5
sample=Cellos_marcato_PP_C5.opus
tune=-3
</region>

<region>
hikey=d2
hivel=127
lokey=c#2
loop_end=277439
loop_mode=loop_continuous
loop_start=98860
loop_xfade=44644
lovel=0
offset=10491
pitch_keycenter=d2
sample=Cellos_marcato_PP_D2.opus
tune=-2
</region>

<region>
hikey=d3
hivel=127
lokey=c#3
loop_end=282471
loop_mode=loop_continuous
loop_start=100653
loop_xfade=45454
lovel=0
offset=15202
pitch_keycenter=d3
sample=Cellos_marcato_PP_D3.opus
tune=-2
</region>

<region>
hikey=d4
hivel=127
lokey=c#4
loop_end=282471
loop_mode=loop_continuous
loop_start=100653
loop_xfade=45454
lovel=0
offset=19964
pitch_keycenter=d4
sample=Cellos_marcato_PP_D4.opus
tune=-2
</region>

<region>
hikey=d5
hivel=127
lokey=c#5
loop_end=282471
loop_mode=loop_continuous
loop_start=100653
loop_xfade=45454
lovel=0
offset=20737
pitch_keycenter=d5
sample=Cellos_marcato_PP_D5.opus
tune=-1
</region>

<region>
hikey=e2
hivel=127
lokey=d#2
loop_end=260445
loop_mode=loop_continuous
loop_start=92804
loop_xfade=41910
lovel=0
offset=5182
pitch_keycenter=e2
sample=Cellos_marcato_PP_E2.opus
tune=-2
</region>

<region>
hikey=e3
hivel=127
lokey=d#3
loop_end=267741
loop_mode=loop_continuous
loop_start=95404
loop_xfade=43084
lovel=0
offset=10242
pitch_keycenter=e3
sample=Cellos_marcato_PP_E3.opus
tune=-4
</region>

<region>
hikey=e4
hivel=127
lokey=d#4
loop_end=279767
loop_mode=loop_continuous
loop_start=99689
loop_xfade=45019
lovel=0
offset=11562
pitch_keycenter=e4
sample=Cellos_marcato_PP_E4.opus
tune=-2
</region>

<region>
hikey=e5
hivel=127
lokey=d#5
loop_end=282471
loop_mode=loop_continuous
loop_start=100653
loop_xfade=45454
lovel=0
offset=18447
pitch_keycenter=e5
sample=Cellos_marcato_PP_E5.opus
tune=-2
</region>

<region>
hikey=f#2
hivel=127
lokey=f2
loop_end=262671
loop_mode=loop_continuous
loop_start=93597
loop_xfade=42268
lovel=0
offset=3429
pitch_keycenter=f#2
sample=Cellos_marcato_PP_F#2.opus
tune=-2
</region>

<region>
hikey=f#3
hivel=127
lokey=f3
loop_end=278713
loop_mode=loop_continuous
loop_start=99314
loop_xfade=44849
lovel=0
offset=13484
pitch_keycenter=f#3
sample=Cellos_marcato_PP_F#3.opus
tune=-3
</region>

<region>
hikey=f#4
hivel=127
lokey=f4
loop_end=278279
loop_mode=loop_continuous
loop_start=99159
loop_xfade=44780
lovel=0
offset=13461
pitch_keycenter=f#4
sample=Cellos_marcato_PP_F#4.opus
tune=-1
</region>

<region>
hikey=F6
hivel=127
lokey=f5
loop_end=282471
loop_mode=loop_continuous
loop_start=100653
loop_xfade=45454
lovel=0
offset=16841
pitch_keycenter=F#5
sample=Cellos_marcato_PP_F#5.opus
tune=-2
</region>

<region>
hikey=g#2
hivel=127
lokey=g2
loop_end=251829
loop_mode=loop_continuous
loop_start=89734
loop_xfade=40523
lovel=0
offset=3838
pitch_keycenter=g#2
sample=Cellos_marcato_PP_G#2.opus
tune=-3
</region>

<region>
hikey=g#3
hivel=127
lokey=g3
loop_end=272397
loop_mode=loop_continuous
loop_start=97063
loop_xfade=43833
lovel=0
offset=7754
pitch_keycenter=g#3
sample=Cellos_marcato_PP_G#3.opus
tune=-3
</region>

<region>
hikey=g#4
hivel=127
lokey=g4
loop_end=282000
loop_mode=loop_continuous
loop_start=100485
loop_xfade=45378
lovel=0
offset=17537
pitch_keycenter=g#4
sample=Cellos_marcato_PP_G#4.opus
tune=-2
</region>
</group>

<group>
amp_veltrack=0
group_label=MF
xf_cccurve=gain
xfin_hicc1=85
xfin_locc1=42
xfout_hicc1=127
xfout_locc1=85

<region>
hikey=a#2
hivel=127
lokey=a2
loop_end=264958
loop_mode=loop_continuous
loop_start=94412
loop_xfade=42636
lovel=0
pitch_keycenter=a#2
sample=Cellos_marcato_MF_A#2.opus
tune=-1
</region>

<region>
hikey=a#3
hivel=127
lokey=a3
loop_end=267533
loop_mode=loop_continuous
loop_start=95330
loop_xfade=43050
lovel=0
offset=377
pitch_keycenter=a#3
sample=Cellos_marcato_MF_A#3.opus
</region>

<region>
hikey=a#4
hivel=127
lokey=a4
loop_end=278013
loop_mode=loop_continuous
loop_start=99064
loop_xfade=44737
lovel=0
pitch_keycenter=a#4
sample=Cellos_marcato_MF_A#4.opus
tune=-1
</region>

<region>
hivel=127
key=c2
loop_end=267495
loop_mode=loop_continuous
loop_start=95316
loop_xfade=43044
lovel=0
offset=278
sample=Cellos_marcato_MF_C2.opus
tune=-1
</region>

<region>
hikey=c3
hivel=127
lokey=b2
loop_end=271602
loop_mode=loop_continuous
loop_start=96780
loop_xfade=43705
lovel=0
pitch_keycenter=c3
sample=Cellos_marcato_MF_C3.opus
tune=-2
</region>

<region>
hikey=c4
hivel=127
lokey=b3
loop_end=274371
loop_mode=loop_continuous
loop_start=97766
loop_xfade=44151
lovel=0
offset=60
pitch_keycenter=c4
sample=Cellos_marcato_MF_C4.opus
tune=-1
</region>

<region>
hikey=c5
hivel=127
lokey=b4
loop_end=274799
loop_mode=loop_continuous
loop_start=97919
loop_xfade=44220
lovel=0
offset=816
pitch_keycenter=c5
sample=Cellos_marcato_MF_C5.opus
</region>

<region>
hikey=d2
hivel=127
lokey=c#2
loop_end=272241
loop_mode=loop_continuous
loop_start=97008
loop_xfade=43808
lovel=0
pitch_keycenter=d2
sample=Cellos_marcato_MF_D2.opus
tune=-2
</region>

<region>
hikey=d3
hivel=127
lokey=c#3
loop_end=268220
loop_mode=loop_continuous
loop_start=95575
loop_xfade=43161
lovel=0
pitch_keycenter=d3
sample=Cellos_marcato_MF_D3.opus
tune=-2
</region>

<region>
hikey=d4
hivel=127
lokey=c#4
loop_end=273761
loop_mode=loop_continuous
loop_start=97549
loop_xfade=44053
lovel=0
pitch_keycenter=d4
sample=Cellos_marcato_MF_D4.opus
tune=-1
</region>

<region>
hikey=d5
hivel=127
lokey=c#5
loop_end=279004
loop_mode=loop_continuous
loop_start=99418
loop_xfade=44896
lovel=0
offset=8264
pitch_keycenter=d5
sample=Cellos_marcato_MF_D5.opus
tune=-1
</region>

<region>
hikey=e2
hivel=127
lokey=d#2
loop_end=266213
loop_mode=loop_continuous
loop_start=94860
loop_xfade=42838
lovel=0
offset=300
pitch_keycenter=e2
sample=Cellos_marcato_MF_E2.opus
tune=-2
</region>

<region>
hikey=e3
hivel=127
lokey=d#3
loop_end=272477
loop_mode=loop_continuous
loop_start=97092
loop_xfade=43846
lovel=0
pitch_keycenter=e3
sample=Cellos_marcato_MF_E3.opus
tune=-1
</region>

<region>
hikey=e4
hivel=127
lokey=d#4
loop_end=273837
loop_mode=loop_continuous
loop_start=97576
loop_xfade=44065
lovel=0
pitch_keycenter=e4
sample=Cellos_marcato_MF_E4.opus
tune=-2
</region>

<region>
hikey=e5
hivel=127
lokey=d#5
loop_end=269436
loop_mode=loop_continuous
loop_start=96008
loop_xfade=43357
lovel=0
offset=729
pitch_keycenter=e5
sample=Cellos_marcato_MF_E5.opus
</region>

<region>
hikey=f#2
hivel=127
lokey=f2
loop_end=268140
loop_mode=loop_continuous
loop_start=95546
loop_xfade=43148
lovel=0
pitch_keycenter=f#2
sample=Cellos_marcato_MF_F#2.opus
tune=-1
</region>

<region>
hikey=f#3
hivel=127
lokey=f3
loop_end=273403
loop_mode=loop_continuous
loop_start=97422
loop_xfade=43995
lovel=0
pitch_keycenter=f#3
sample=Cellos_marcato_MF_F#3.opus
</region>

<region>
hikey=f#4
hivel=127
lokey=f4
loop_end=273233
loop_mode=loop_continuous
loop_start=97361
loop_xfade=43968
lovel=0
offset=240
pitch_keycenter=f#4
sample=Cellos_marcato_MF_F#4.opus
</region>

<region>
hikey=F6
hivel=127
lokey=f5
loop_end=276145
loop_mode=loop_continuous
loop_start=98399
loop_xfade=44436
lovel=0
pitch_keycenter=F#5
sample=Cellos_marcato_MF_F#5.opus
</region>

<region>
hikey=g#2
hivel=127
lokey=g2
loop_end=272942
loop_mode=loop_continuous
loop_start=97257
loop_xfade=43921
lovel=0
offset=579
pitch_keycenter=g#2
sample=Cellos_marcato_MF_G#2.opus
tune=-1
</region>

<region>
hikey=g#3
hivel=127
lokey=g3
loop_end=263825
loop_mode=loop_continuous
loop_start=94009
loop_xfade=42454
lovel=0
pitch_keycenter=g#3
sample=Cellos_marcato_MF_G#3.opus
tune=-1
</region>

<region>
hikey=g#4
hivel=127
lokey=g4
loop_end=272842
loop_mode=loop_continuous
loop_start=97222
loop_xfade=43905
lovel=0
pitch_keycenter=g#4
sample=Cellos_marcato_MF_G#4.opus
tune=-1
</region>
</group>

<group>
amp_veltrack=0
group_label=FF
xf_cccurve=gain
xfin_hicc1=127
xfin_locc1=85
xfout_hicc1=127
xfout_locc1=127

<region>
hikey=a#2
hivel=127
lokey=a2
loop_end=270912
loop_mode=loop_continuous
loop_start=96534
loop_xfade=43594
lovel=0
pitch_keycenter=a#2
sample=Cellos_marcato_FF_A#2.opus
</region>

<region>
hikey=a#3
hivel=127
lokey=a3
loop_end=272563
loop_mode=loop_continuous
loop_start=97122
loop_xfade=43860
lovel=0
offset=1233
pitch_keycenter=a#3
sample=Cellos_marcato_FF_A#3.opus
tune=-1
</region>

<region>
hikey=a#4
hivel=127
lokey=a4
loop_end=272672
loop_mode=loop_continuous
loop_start=97161
loop_xfade=43877
lovel=0
pitch_keycenter=a#4
sample=Cellos_marcato_FF_A#4.opus
</region>

<region>
hivel=127
key=c2
loop_end=265475
loop_mode=loop_continuous
loop_start=94596
loop_xfade=42719
lovel=0
offset=6844
sample=Cellos_marcato_FF_C2.opus
tune=-1
</region>

<region>
hikey=c3
hivel=127
lokey=b2
loop_end=270714
loop_mode=loop_continuous
loop_start=96464
loop_xfade=43562
lovel=0
offset=779
pitch_keycenter=c3
sample=Cellos_marcato_FF_C3.opus
tune=-2
</region>

<region>
hikey=c4
hivel=127
lokey=b3
loop_end=270183
loop_mode=loop_continuous
loop_start=96274
loop_xfade=43477
lovel=0
offset=149
pitch_keycenter=c4
sample=Cellos_marcato_FF_C4.opus
tune=-1
</region>

<region>
hikey=c5
hivel=127
lokey=b4
loop_end=274381
loop_mode=loop_continuous
loop_start=97770
loop_xfade=44152
lovel=0
pitch_keycenter=c5
sample=Cellos_marcato_FF_C5.opus
</region>

<region>
hikey=d2
hivel=127
lokey=c#2
loop_end=272327
loop_mode=loop_continuous
loop_start=97038
loop_xfade=43822
lovel=0
offset=2226
pitch_keycenter=d2
sample=Cellos_marcato_FF_D2.opus
tune=-1
</region>

<region>
hikey=d3
hivel=127
lokey=c#3
loop_end=273719
loop_mode=loop_continuous
loop_start=97534
loop_xfade=44046
lovel=0
offset=220
pitch_keycenter=d3
sample=Cellos_marcato_FF_D3.opus
tune=-1
</region>

<region>
hikey=d4
hivel=127
lokey=c#4
loop_end=272242
loop_mode=loop_continuous
loop_start=97008
loop_xfade=43808
lovel=0
offset=1121
pitch_keycenter=d4
sample=Cellos_marcato_FF_D4.opus
</region>

<region>
hikey=d5
hivel=127
lokey=c#5
loop_end=274208
loop_mode=loop_continuous
loop_start=97709
loop_xfade=44124
lovel=0
pitch_keycenter=d5
sample=Cellos_marcato_FF_D5.opus
tune=+1
</region>

<region>
hikey=e2
hivel=127
lokey=d#2
loop_end=271427
loop_mode=loop_continuous
loop_start=96717
loop_xfade=43677
lovel=0
pitch_keycenter=e2
sample=Cellos_marcato_FF_E2.opus
</region>

<region>
hikey=e3
hivel=127
lokey=d#3
loop_end=273864
loop_mode=loop_continuous
loop_start=97586
loop_xfade=44069
lovel=0
pitch_keycenter=e3
sample=Cellos_marcato_FF_E3.opus
tune=-2
</region>

<region>
hikey=e4
hivel=127
lokey=d#4
loop_end=270456
loop_mode=loop_continuous
loop_start=96372
loop_xfade=43521
lovel=0
pitch_keycenter=e4
sample=Cellos_marcato_FF_E4.opus
tune=-2
</region>

<region>
hikey=e5
hivel=127
lokey=d#5
loop_end=270794
loop_mode=loop_continuous
loop_start=96492
loop_xfade=43575
lovel=0
offset=258
pitch_keycenter=e5
sample=Cellos_marcato_FF_E5.opus
</region>

<region>
hikey=f#2
hivel=127
lokey=f2
loop_end=272997
loop_mode=loop_continuous
loop_start=97277
loop_xfade=43930
lovel=0
pitch_keycenter=f#2
sample=Cellos_marcato_FF_F#2.opus
tune=-2
</region>

<region>
hikey=f#3
hivel=127
lokey=f3
loop_end=272034
loop_mode=loop_continuous
loop_start=96934
loop_xfade=43775
lovel=0
pitch_keycenter=f#3
sample=Cellos_marcato_FF_F#3.opus
tune=-2
</region>

<region>
hikey=f#4
hivel=127
lokey=f4
loop_end=273090
loop_mode=loop_continuous
loop_start=97310
loop_xfade=43945
lovel=0
pitch_keycenter=f#4
sample=Cellos_marcato_FF_F#4.opus
tune=-1
</region>

<region>
hikey=F6
hivel=127
lokey=f5
loop_end=272955
loop_mode=loop_continuous
loop_start=97262
loop_xfade=43923
lovel=0
pitch_keycenter=F#5
sample=Cellos_marcato_FF_F#5.opus
</region>

<region>
hikey=g#2
hivel=127
lokey=g2
loop_end=270066
loop_mode=loop_continuous
loop_start=96232
loop_xfade=43458
lovel=0
pitch_keycenter=g#2
sample=Cellos_marcato_FF_G#2.opus
tune=-1
</region>

<region>
hikey=g#3
hivel=127
lokey=g3
loop_end=273953
loop_mode=loop_continuous
loop_start=97618
loop_xfade=44083
lovel=0
offset=11
pitch_keycenter=g#3
sample=Cellos_marcato_FF_G#3.opus
tune=-2
</region>

<region>
hikey=g#4
hivel=127
lokey=g4
loop_end=272938
loop_mode=loop_continuous
loop_start=97256
loop_xfade=43920
lovel=0
pitch_keycenter=g#4
sample=Cellos_marcato_FF_G#4.opus
tune=-1
</region>
</group>